<svg width="24" height="27" viewBox="0 0 24 27" fill="none" xmlns="http://www.w3.org/2000/svg">
  <!-- Bowl body -->
  <path d="M3 7 C4 13 7 18 11 18 L13 18 C17 18 20 13 21 7 Z" fill="url(#pb-lg1)"/>
  <!-- Left-side metallic sheen -->
  <path d="M5 8.5 C5.5 13 7.5 16.8 11 17.8" stroke="rgba(255,255,255,0.28)" stroke-width="0.8" stroke-linecap="round" fill="none"/>
  <!-- Rim -->
  <ellipse cx="12" cy="7" rx="9" ry="2" fill="url(#pb-lg2)"/>
  <!-- Inner bowl depth -->
  <ellipse cx="12" cy="7" rx="6.5" ry="1.4" fill="rgba(0,0,0,0.38)"/>
  <!-- Stem -->
  <rect x="10.5" y="18" width="3" height="2.5" fill="url(#pb-lg3)"/>
  <!-- Upper base step -->
  <rect x="7" y="20.5" width="10" height="2.5" rx="0.5" fill="#1c1c1c"/>
  <rect x="7.5" y="20.65" width="9" height="0.6" rx="0.3" fill="rgba(255,255,255,0.15)"/>
  <!-- Lower base step -->
  <rect x="2.5" y="23" width="19" height="3" rx="0.5" fill="#111111"/>
  <rect x="3" y="23.15" width="18" height="0.6" rx="0.3" fill="rgba(255,255,255,0.12)"/>
  <defs>
    <linearGradient id="pb-lg1" x1="3" y1="12" x2="21" y2="12" gradientUnits="userSpaceOnUse">
      <stop offset="0%" stop-color="#374151"/>
      <stop offset="15%" stop-color="#9ca3af"/>
      <stop offset="38%" stop-color="#e2e8f0"/>
      <stop offset="50%" stop-color="#f8fafc"/>
      <stop offset="62%" stop-color="#e2e8f0"/>
      <stop offset="85%" stop-color="#9ca3af"/>
      <stop offset="100%" stop-color="#374151"/>
    </linearGradient>
    <linearGradient id="pb-lg2" x1="3" y1="7" x2="21" y2="7" gradientUnits="userSpaceOnUse">
      <stop offset="0%" stop-color="#6b7280"/>
      <stop offset="28%" stop-color="#d1d5db"/>
      <stop offset="50%" stop-color="#ffffff"/>
      <stop offset="72%" stop-color="#d1d5db"/>
      <stop offset="100%" stop-color="#6b7280"/>
    </linearGradient>
    <linearGradient id="pb-lg3" x1="12" y1="18" x2="12" y2="20.5" gradientUnits="userSpaceOnUse">
      <stop offset="0%" stop-color="#9ca3af"/>
      <stop offset="100%" stop-color="#6b7280"/>
    </linearGradient>
  </defs>
</svg>
